<?xml version="1.0" encoding="utf-8"?>
<!-- Generator: Adobe Illustrator 25.4.1, SVG Export Plug-In . SVG Version: 6.00 Build 0)  -->
<svg version="1.1" id="Layer_1" xmlns="http://www.w3.org/2000/svg" xmlns:xlink="http://www.w3.org/1999/xlink" x="0px" y="0px"
	 viewBox="0 0 170 70" style="enable-background:new 0 0 170 70;" xml:space="preserve">
<style type="text/css">
	.st0{fill:url(#SVGID_1_);}
	.st1{fill:url(#SVGID_00000124143838048883298200000012240130036657778832_);}
	.st2{fill:url(#SVGID_00000112628863983516263000000012310725224640226971_);}
</style>
<g>
	<radialGradient id="SVGID_1_" cx="31.3427" cy="35" r="29.3889" gradientUnits="userSpaceOnUse">
		<stop  offset="0" style="stop-color:#FFCD6A"/>
		<stop  offset="0.6872" style="stop-color:#FF7D15"/>
	</radialGradient>
	<path class="st0" d="M57.7,55.7c0,0.5-0.3,1.1-0.9,1.8c-5.4,6.4-12.5,9.6-21.4,9.6c-9.1,0-16.5-3.1-22.1-9.3
		C7.8,51.8,5,44.3,5,35.1c0-8.9,2.7-16.4,8.1-22.6c5.6-6.5,12.8-9.7,21.5-9.7c9.4,0,16.8,2.9,22.2,8.7c0.6,0.6,0.9,1.2,0.9,1.7
		c0,0.6-1,2.6-3,6.2c-2,3.6-3.3,5.6-3.8,6c-0.2,0.2-0.5,0.3-0.9,0.3c-0.1,0-0.9-0.6-2.2-1.7c-1.6-1.4-3.1-2.5-4.6-3.3
		c-2.3-1.2-4.7-1.7-7.2-1.7c-4.3,0-7.7,1.6-10.3,4.8c-2.4,3-3.5,6.6-3.5,11c0,4.4,1.2,8.1,3.5,11.1c2.6,3.3,6,4.9,10.3,4.9
		c2.5,0,4.9-0.6,7.2-1.7c1.5-0.7,3-1.7,4.5-3.1c1.3-1.1,2-1.7,2.1-1.7c0.3,0,0.6,0.2,0.9,0.5c0.5,0.5,1.7,2.3,3.8,5.5
		C56.6,53.6,57.7,55.4,57.7,55.7z"/>
	
		<radialGradient id="SVGID_00000054250174057505901530000013303837133651314328_" cx="84" cy="35" r="31.7297" gradientUnits="userSpaceOnUse">
		<stop  offset="0" style="stop-color:#FFCD6A"/>
		<stop  offset="0.6872" style="stop-color:#FF7D15"/>
	</radialGradient>
	<path style="fill:url(#SVGID_00000054250174057505901530000013303837133651314328_);" d="M115.2,35.1c0,9.1-2.9,16.7-8.7,22.9
		c-5.9,6.2-13.4,9.4-22.5,9.4c-9,0-16.5-3.1-22.4-9.4c-5.8-6.1-8.7-13.7-8.7-22.8c0-9.1,2.9-16.7,8.7-22.9C67.5,5.9,75,2.7,84,2.7
		c8.9,0,16.4,3.2,22.4,9.5C112.2,18.4,115.2,26.1,115.2,35.1z M98.6,35c0-4.4-1.3-8.1-4-11.1C91.9,20.6,88.3,19,84,19
		c-4.1,0-7.6,1.7-10.4,5c-2.8,3.2-4.2,6.9-4.2,11.1c0,4.5,1.3,8.2,3.9,11.1c2.7,3.1,6.3,4.7,10.7,4.7c4.1,0,7.6-1.6,10.5-4.9
		C97.2,42.8,98.6,39.1,98.6,35z"/>
	
		<radialGradient id="SVGID_00000088846491207398590090000015642270263248190648_" cx="138.6573" cy="35" r="29.3889" gradientUnits="userSpaceOnUse">
		<stop  offset="0" style="stop-color:#FFCD6A"/>
		<stop  offset="0.6872" style="stop-color:#FF7D15"/>
	</radialGradient>
	<path style="fill:url(#SVGID_00000088846491207398590090000015642270263248190648_);" d="M156.7,12.2c-5.7-6.2-13-9.3-22.1-9.3
		c-8.9,0-16,3.2-21.4,9.6c-0.6,0.8-0.9,1.4-0.9,1.8c0,0.2,0.5,1.1,1.4,2.6c2.8,5.8,7.8,20.6-1.4,39.5l0.1,0
		c-0.1,0.2-0.1,0.3-0.1,0.4c0,0.5,0.3,1.1,0.9,1.7c5.4,5.8,12.8,8.7,22.2,8.7c8.7,0,15.8-3.2,21.5-9.7c5.4-6.2,8.1-13.7,8.1-22.6
		C165,25.7,162.2,18.2,156.7,12.2z M144.4,46.2c-2.6,3.2-6,4.8-10.3,4.8c-2.1,0-4.1-0.4-6-1.3c4.4-12.9,2.4-23.4,0.1-29.5
		c1.9-0.7,3.9-1.1,5.9-1.1c4.3,0,7.7,1.6,10.3,4.9c2.4,3,3.5,6.7,3.5,11.1C147.9,39.6,146.7,43.2,144.4,46.2z"/>
</g>
</svg>
