<svg id="visual" viewBox="0 0 900 600" width="900" height="600" xmlns="http://www.w3.org/2000/svg" xmlns:xlink="http://www.w3.org/1999/xlink" version="1.1"><path d="M0 136L21.5 138.2C43 140.3 86 144.7 128.8 144.3C171.7 144 214.3 139 257.2 128.3C300 117.7 343 101.3 385.8 109.3C428.7 117.3 471.3 149.7 514.2 157.7C557 165.7 600 149.3 642.8 136.2C685.7 123 728.3 113 771.2 113.5C814 114 857 125 878.5 130.5L900 136L900 0L878.5 0C857 0 814 0 771.2 0C728.3 0 685.7 0 642.8 0C600 0 557 0 514.2 0C471.3 0 428.7 0 385.8 0C343 0 300 0 257.2 0C214.3 0 171.7 0 128.8 0C86 0 43 0 21.5 0L0 0Z" fill="#8EC3FF" stroke-linecap="round" stroke-linejoin="miter"></path></svg>