<svg id="visual" viewBox="0 0 900 600" width="900" height="600" xmlns="http://www.w3.org/2000/svg" xmlns:xlink="http://www.w3.org/1999/xlink" version="1.1"><path d="M0 493L21.5 476.3C43 459.7 86 426.3 128.8 426C171.7 425.7 214.3 458.3 257.2 456.7C300 455 343 419 385.8 420.7C428.7 422.3 471.3 461.7 514.2 471.8C557 482 600 463 642.8 446.3C685.7 429.7 728.3 415.3 771.2 416.2C814 417 857 433 878.5 441L900 449L900 601L878.5 601C857 601 814 601 771.2 601C728.3 601 685.7 601 642.8 601C600 601 557 601 514.2 601C471.3 601 428.7 601 385.8 601C343 601 300 601 257.2 601C214.3 601 171.7 601 128.8 601C86 601 43 601 21.5 601L0 601Z" fill="#FFFFFF" stroke-linecap="round" stroke-linejoin="miter"></path></svg>