<svg id="visual" viewBox="0 0 900 600" width="900" height="600" xmlns="http://www.w3.org/2000/svg" xmlns:xlink="http://www.w3.org/1999/xlink" version="1.1"><path d="M0 503L21.5 490.5C43 478 86 453 128.8 448.3C171.7 443.7 214.3 459.3 257.2 452.7C300 446 343 417 385.8 416.8C428.7 416.7 471.3 445.3 514.2 454C557 462.7 600 451.3 642.8 442.8C685.7 434.3 728.3 428.7 771.2 437.3C814 446 857 469 878.5 480.5L900 492L900 601L878.5 601C857 601 814 601 771.2 601C728.3 601 685.7 601 642.8 601C600 601 557 601 514.2 601C471.3 601 428.7 601 385.8 601C343 601 300 601 257.2 601C214.3 601 171.7 601 128.8 601C86 601 43 601 21.5 601L0 601Z" fill="#8EC3FF" stroke-linecap="round" stroke-linejoin="miter"></path></svg>